<?xml version="1.0" encoding="utf-8"?>
<!-- Generator: Adobe Illustrator 24.2.3, SVG Export Plug-In . SVG Version: 6.00 Build 0)  -->
<svg version="1.1" id="Layer_1" xmlns="http://www.w3.org/2000/svg" xmlns:xlink="http://www.w3.org/1999/xlink" x="0px" y="0px"
	 viewBox="0 0 22.9 22.9" style="enable-background:new 0 0 22.9 22.9;" xml:space="preserve">
<g id="E_1_">
	<path d="M4.3,20.2H7v0.6H5v0.5h1.6v0.5H5v0.5h2v0.6H4.3V20.2z"/>
</g>
<g id="V">
	<path d="M11.3,20.2l-1.2,2.6H9.1l-1.2-2.6h0.8l1,2.3l1-2.3H11.3z"/>
</g>
<g id="I">
	<path d="M12.4,20.2h0.7v2.6h-0.7V20.2z"/>
</g>
<g id="N">
	<path d="M17.5,20.2v2.6h-1.2L15,20.6v2.3h-0.7v-2.6h1.2l1.3,2.2v-2.2H17.5z"/>
</g>
<g id="E">
	<path d="M18.8,20.2h2.7v0.6h-2v0.5h1.6v0.5h-1.6v0.5h2v0.6h-2.7V20.2z"/>
</g>
<path d="M15.2,0H7.9v0.5c3.9,0,7.1,3.2,7.1,7.1s-3.2,7.1-7.1,7.1v0.5h7.4c4.2,0,7.6-3.4,7.6-7.6C22.9,3.4,19.5,0,15.2,0z"/>
<rect width="7.9" height="15.2"/>
<rect y="20.2" width="0.7" height="2.6"/>
<path d="M2,20.2H0.7v0.6h0.2h0.6h0.2c0.7,0,1.1,0.3,1.1,0.8s-0.4,0.8-1.1,0.8H1.4H0.9H0.7v0.6H2c0.7,0,1.4-0.6,1.4-1.3
	C3.4,20.8,2.7,20.2,2,20.2z"/>
</svg>
